<?xml version="1.0" encoding="utf-8"?>
<!-- Generator: Adobe Illustrator 26.3.1, SVG Export Plug-In . SVG Version: 6.00 Build 0)  -->
<svg version="1.1" xmlns="http://www.w3.org/2000/svg" xmlns:xlink="http://www.w3.org/1999/xlink" x="0px" y="0px"
	 viewBox="0 0 720 144" style="enable-background:new 0 0 720 144;" xml:space="preserve">
<style type="text/css">
	.st0{fill:#90181B;}
</style>
<g id="Color_2">
	<g>
		<path class="st0" d="M186.19,40.46c0,0-8.34,0-8.46,0c-2.47,0-4.5,1.86-4.76,4.26l-11,58.02c0,0,8.32,0,8.46,0
			c2.47,0,4.5-1.86,4.76-4.26L186.19,40.46z"/>
		<path class="st0" d="M110.99,40.46c-2.47,0-4.5,1.86-4.76,4.26l-5.81,30.65L88.34,40.56l0.02-0.1c0,0-8.34,0-8.46,0
			c-2.47,0-4.5,1.86-4.76,4.26l-11,58.02c0,0,8.32,0,8.46,0c2.47,0,4.5-1.86,4.76-4.26l5.78-30.53l12.08,34.79l0.01-0.01l0,0.01
			c0,0,8.32,0,8.46,0c2.47,0,4.5-1.86,4.76-4.26l11-58.02C119.45,40.46,111.11,40.46,110.99,40.46z"/>
		<path class="st0" d="M69.89,40.46c0,0-8.34,0-8.46,0c-2.47,0-4.5,1.86-4.76,4.26l-11,58.02c0,0,8.32,0,8.46,0
			c2.47,0,4.5-1.86,4.76-4.26L69.89,40.46z"/>
		<path class="st0" d="M129.49,40.46c-2.47,0-4.5,1.86-4.76,4.26l-11,58.02c0,0,8.32,0,8.46,0c2.47,0,4.5-1.86,4.76-4.26l3.96-20.87
			l14.33,0.01c2.4,0.19,4.61-1.46,5.07-3.88c0.03-0.13,1.58-8.31,1.58-8.31l-18.67-0.01l2.41-12.72l26.86,0.01
			c2.4,0.19,4.61-1.46,5.07-3.88c0.03-0.13,1.58-8.31,1.58-8.31S129.61,40.46,129.49,40.46z"/>
		<path class="st0" d="M314.52,40.46c-2.47,0-4.5,1.86-4.76,4.26l-11,58.02l39.3-0.01c2.4,0.19,4.61-1.46,5.07-3.88
			c0.03-0.13,1.58-8.31,1.58-8.31l-31.22-0.01l2.45-12.91l14.33,0.01c2.4,0.19,4.61-1.46,5.07-3.88c0.03-0.13,1.58-8.31,1.58-8.31
			l-18.67-0.01l2.41-12.72l26.86,0.01c2.4,0.19,4.61-1.46,5.07-3.88c0.03-0.13,1.58-8.31,1.58-8.31S314.64,40.46,314.52,40.46z"/>
		<path class="st0" d="M228.42,40.46c-2.47,0-4.5,1.86-4.76,4.26l-5.81,30.65l-12.08-34.81l0.02-0.1c0,0-8.34,0-8.46,0
			c-2.47,0-4.5,1.86-4.76,4.26l-11,58.02c0,0,8.32,0,8.46,0c2.47,0,4.5-1.86,4.76-4.26l5.79-30.53l12.08,34.79l0.01-0.01l0,0.01
			c0,0,8.32,0,8.46,0c2.47,0,4.5-1.86,4.76-4.26l11-58.02C236.88,40.46,228.54,40.46,228.42,40.46z"/>
		<path class="st0" d="M256.08,40.46c0,0-8.34,0-8.46,0c-2.47,0-4.5,1.86-4.76,4.26l-11,58.02c0,0,8.32,0,8.46,0
			c2.47,0,4.5-1.86,4.76-4.26L256.08,40.46z"/>
		<path class="st0" d="M265.76,40.5c-2.4-0.19-4.61,1.46-5.07,3.88c-0.03,0.13-1.58,8.31-1.58,8.31l15.91,0.01l-9.48,50.04
			c0,0,8.32,0,8.46,0c2.47,0,4.5-1.86,4.76-4.26l8.67-45.77l10.95-0.01c2.4,0.19,4.61-1.46,5.07-3.88c0.03-0.13,1.58-8.31,1.58-8.31
			L265.76,40.5z"/>
	</g>
	<path class="st0" d="M423.33,58.22c0,4.91-7.5,11.85-14.54,11.39c-3.03-0.28-4.29-0.29-8.23-0.76c-0.49-4.1-0.72-4.94-0.97-7.92
		c-0.81-9.6,8.04-14.66,11.67-14.79c-4.33-0.11-15.99,2.48-15.11,22.19c-6.62-0.78-12.81-1.5-14.85-1.66
		c-8.28-0.3-20.59,7.25-20.65,20.21c0,0.72,0.05,1.38,0.14,1.99c0.78,10.69,9.58,19.15,20.41,19.39c0.41,0.04,0.83,0.06,1.28,0.06
		c12.96-0.07,20.51-12.37,20.21-20.65c-0.12-1.52-0.54-5.32-1.07-9.9c-1.54-0.18-3.17-0.37-4.82-0.57
		c0.61,21.99-12.8,22.06-15.13,22.19c-6.66,0-12.06-5.4-12.06-12.06h-0.01c0-0.01,0-0.01,0-0.02c0.13-2.49,0.17-17.31,26.9-14.52
		C420.83,74.75,423.37,63.15,423.33,58.22z"/>
</g>
<g id="Color_1">
	<g>
		<path d="M518.73,40.46c0,0-8.34,0-8.46,0c-2.47,0-4.5,1.86-4.76,4.26l-11,58.02c0,0,8.32,0,8.46,0c2.47,0,4.5-1.86,4.76-4.26
			L518.73,40.46z"/>
		<path d="M493.84,57.62c0-9.34-7.47-16.93-16.77-17.12l0,0c0,0-19.18-0.03-19.31-0.03c-2.47,0-4.5,1.86-4.76,4.26l-11,58.02
			l28.91-0.02c0.17,0,0.33,0.02,0.5,0.02c8.26,0,15.16-5.85,16.77-13.64l0.01-0.01l5.39-28.44l-0.03-0.04
			C493.74,59.64,493.84,58.64,493.84,57.62z M481.61,58.36l-5.33,27.91c-0.42,2.36-2.41,4.27-4.86,4.27
			c-0.09,0-14.68-0.02-14.68-0.02l7.17-37.83c0,0,12.79-0.02,12.96-0.02c2.65,0,4.81,2.15,4.81,4.81c0,0.3-0.03,0.6-0.08,0.88
			L481.61,58.36z"/>
		<path d="M593.85,40.48c-0.17,0-0.33-0.02-0.5-0.02c-8.26,0-15.16,5.85-16.77,13.64l-0.01,0.01l-5.39,28.44l0.03,0.04
			c-0.17,0.97-0.27,1.97-0.27,2.99c0,9.34,7.48,16.93,16.77,17.12l0,0l18.95,0.02c2.4,0.19,4.62-1.46,5.07-3.88
			c0.03-0.14,1.58-8.31,1.58-8.31s-25.31,0-25.4,0c-2.66,0-4.81-2.15-4.81-4.81c0-0.3,0.06-0.89,0.06-0.89l5.33-27.91
			c0.42-2.36,2.41-4.27,4.86-4.27c0.04,0,22.76,0.03,22.76,0.03c2.4,0.19,4.62-1.46,5.08-3.88c0.03-0.13,1.58-8.31,1.58-8.31
			L593.85,40.48z"/>
		<path d="M645.42,40.58c-0.17,0-0.33-0.02-0.5-0.02c-8.26,0-15.16,5.85-16.77,13.64l-0.61,3.42c-0.17,0.97-0.27,1.97-0.27,3
			c0,9.34,7.48,16.93,16.77,17.12l0,0c0,0,2.32,0,5.34,0.01c2.49,0.19,4.45,2.26,4.45,4.79c0,0.28-0.03,0.55-0.08,0.82l-0.55,2.91
			c-0.42,2.36-2.41,4.27-4.86,4.27c-0.04,0-22.76-0.03-22.76-0.03c-2.4-0.18-4.61,1.46-5.07,3.89c-0.03,0.13-1.58,8.31-1.58,8.31
			l28.91,0.02c0.17,0,0.33,0.02,0.5,0.02c8.26,0,15.16-5.85,16.77-13.64l0.01-0.01l0.14-0.75l0,0l0.1-0.54l0.27-1.4l-0.01,0
			l0.12-0.68l-0.03-0.04c0.17-0.97,0.27-1.97,0.27-3c0-9.34-7.47-16.93-16.76-17.12l0,0c0,0-2.32,0-5.34-0.01
			c-2.49-0.19-4.45-2.26-4.45-4.79c0-0.28,0.03-0.56,0.08-0.82l0.55-2.91c0.42-2.36,2.41-4.27,4.86-4.27
			c0.04,0,22.76,0.03,22.76,0.03c2.4,0.19,4.61-1.46,5.07-3.88c0.03-0.13,1.58-8.31,1.58-8.31L645.42,40.58z"/>
		<path d="M542.32,40.58c-0.17,0-0.33-0.02-0.5-0.02c-8.26,0-15.16,5.85-16.77,13.64l-0.62,3.42c-0.17,0.97-0.27,1.97-0.27,3
			c0,9.34,7.48,16.93,16.77,17.12l0,0c0,0,2.32,0,5.34,0.01c2.48,0.19,4.45,2.26,4.45,4.79c0,0.28-0.03,0.55-0.08,0.82l-0.55,2.91
			c-0.42,2.36-2.41,4.27-4.86,4.27c-0.04,0-22.76-0.03-22.76-0.03c-2.4-0.18-4.61,1.46-5.07,3.88c-0.03,0.14-1.58,8.31-1.58,8.31
			l28.91,0.02c0.17,0,0.34,0.02,0.5,0.02c8.26,0,15.16-5.85,16.77-13.64l0.01-0.01l0.14-0.75l0,0l0.1-0.54l0.26-1.4l-0.01,0
			l0.12-0.68l-0.02-0.04c0.17-0.97,0.27-1.97,0.27-2.99c0-9.34-7.47-16.93-16.77-17.12l0,0c0,0-2.31,0-5.34-0.01
			c-2.49-0.19-4.45-2.26-4.45-4.79c0-0.28,0.03-0.56,0.08-0.82l0.56-2.91c0.42-2.36,2.41-4.27,4.86-4.27
			c0.04,0,22.76,0.03,22.76,0.03c2.4,0.19,4.61-1.46,5.08-3.88c0.03-0.13,1.58-8.31,1.58-8.31L542.32,40.58z"/>
	</g>
	<path d="M396.27,34.36c3.14,0,6.18,0.38,9.1,1.08c1.95-0.52,4-0.79,6.11-0.79c3.95,0,7.68,0.97,10.96,2.67
		c0.26,0.14,0.49-0.23,0.26-0.4c-7.18-5.41-16.08-8.66-25.73-8.8c-24.38-0.34-44.26,19.01-44.52,43.4
		c-0.1,8.72,2.36,16.85,6.65,23.71c0.15,0.24,0.52,0.06,0.43-0.21c-0.86-2.45-1.32-5.09-1.32-7.84c0-1.82,0.21-3.59,0.6-5.29
		c-0.74-2.97-1.14-6.07-1.14-9.26C357.66,51.49,374.95,34.36,396.27,34.36z"/>
	<path d="M434.18,49.76c-0.15-0.25-0.53-0.07-0.43,0.21c1.01,2.64,1.57,5.51,1.57,8.51c0,2.48-0.38,4.88-1.09,7.13
		c0.42,2.27,0.66,4.61,0.66,7.01c0,21.14-17.29,38.27-38.62,38.27c-2.65,0-5.24-0.27-7.75-0.77c-2.06,0.58-4.23,0.9-6.48,0.9
		c-2.26,0-4.45-0.32-6.52-0.91c-0.27-0.08-0.43,0.3-0.18,0.44c6.24,3.41,13.39,5.35,21,5.35c24.24,0,43.89-19.65,43.89-43.89
		C440.24,63.88,438.03,56.28,434.18,49.76z"/>
	<path d="M369.61,87.31c0-4.91,7.5-11.85,14.54-11.39c3.03,0.28,4.29,0.29,8.23,0.76c0.49,4.1,0.72,4.94,0.97,7.92
		c0.81,9.6-8.04,14.66-11.67,14.79c4.1,0.11,16.03-2.18,15.11-22.19c6.62,0.78,12.81,1.5,14.85,1.66
		c8.28,0.3,20.59-7.25,20.65-20.21c0-0.72-0.05-1.38-0.14-1.99c-0.78-10.69-9.58-19.15-20.41-19.39c-0.41-0.04-0.83-0.06-1.28-0.06
		c-12.96,0.07-20.51,12.37-20.21,20.65c0.12,1.52,0.54,5.32,1.07,9.9c1.54,0.18,3.17,0.37,4.82,0.57
		c-0.61-21.99,12.8-22.06,15.13-22.19c6.66,0,12.06,5.4,12.06,12.06h0.01c0,0.01,0,0.01,0,0.02c-0.01,2.65-0.23,16.67-26.83,14.56
		C371.96,70.17,369.61,82.5,369.61,87.31z"/>
</g>
</svg>
